<svg width="56" height="57" viewBox="0 0 56 57" fill="none" xmlns="http://www.w3.org/2000/svg">
<g clip-path="url(#clip0_1086_6980)">
<path d="M34.999 7.59668C28.7025 7.59668 23.0675 10.3827 19.221 14.7717C18.647 14.7122 18.087 14.5967 17.499 14.5967C7.83552 14.5967 -0.000976562 22.4332 -0.000976562 32.0967C-0.000976562 41.7602 7.83552 49.5967 17.499 49.5967C20.5055 49.5967 31.681 49.5967 34.999 49.5967C46.598 49.5967 55.999 40.1957 55.999 28.5967C55.999 16.9977 46.598 7.59668 34.999 7.59668Z" fill="#F44336"/>
<path d="M35.006 11.0959C30.561 11.0959 26.452 12.7444 23.2985 15.6214C24.3975 15.9679 25.507 16.4719 26.613 17.1544C26.669 17.1859 26.725 17.2209 26.781 17.2559L26.7915 17.2629C29.1295 15.5549 31.9715 14.5959 35.006 14.5959C42.727 14.5959 49.006 20.8749 49.006 28.5959C49.006 36.3169 42.727 42.5959 35.006 42.5959C31.982 42.5959 29.098 41.6404 26.662 39.8239C25.675 39.0959 24.87 38.3294 24.198 37.4824C24.1595 37.4334 24.121 37.3879 24.0755 37.3424L18.8605 30.9864C18.2445 30.2374 17.142 30.1254 16.3965 30.7414C15.6475 31.3539 15.539 32.4564 16.1515 33.2054L21.468 39.6874C21.496 39.7224 21.5275 39.7574 21.559 39.7889C22.406 40.8319 23.3965 41.7629 24.5795 42.6344C27.614 44.8989 31.219 46.0959 35.006 46.0959C44.6555 46.0959 52.506 38.2454 52.506 28.5959C52.506 18.9464 44.6555 11.0959 35.006 11.0959Z" fill="#FAFAFA"/>
<path d="M19.2494 42.4382C18.6789 42.5327 18.0944 42.5957 17.5029 42.5957C11.7139 42.5957 7.00293 37.8847 7.00293 32.0957C7.00293 25.1482 13.7124 19.6252 21.0239 22.2327C21.6469 22.4077 22.3259 22.7262 23.0434 23.1812C23.0749 23.2022 23.1099 23.2197 23.1449 23.2407L34.0754 30.0832C34.8979 30.5942 35.9759 30.3457 36.4869 29.5232C36.9979 28.7042 36.7494 27.6262 35.9339 27.1117L24.9229 20.2202C24.8949 20.2027 24.8634 20.1852 24.8319 20.1677C23.8554 19.5587 22.8964 19.1212 22.0879 18.9007C20.6109 18.3652 19.0709 18.0957 17.5029 18.0957C9.78193 18.0957 3.50293 24.3747 3.50293 32.0957C3.50293 39.8167 9.78193 46.0957 17.5029 46.0957C19.1514 46.0957 20.7509 45.7912 22.2559 45.2487C21.1219 44.3912 20.1349 43.4567 19.2494 42.4382Z" fill="#FAFAFA"/>
</g>
<defs>
<clipPath id="clip0_1086_6980">
<rect width="56" height="56" fill="white" transform="translate(0.000976562 0.596191)"/>
</clipPath>
</defs>
</svg>
