<svg width="56" height="57" viewBox="0 0 56 57" fill="none" xmlns="http://www.w3.org/2000/svg">
<g clip-path="url(#clip0_1086_6986)">
<path d="M47.4153 10.7927C43.846 9.15506 40.0186 7.94843 36.0166 7.25729C35.9438 7.24395 35.871 7.27731 35.8334 7.34392C35.3411 8.21947 34.7959 9.36156 34.4141 10.2593C30.1099 9.61487 25.8276 9.61487 21.6116 10.2593C21.2297 9.34165 20.6647 8.21947 20.1702 7.34392C20.1327 7.2795 20.0598 7.24614 19.987 7.25729C15.9874 7.94614 12.1599 9.15276 8.58836 10.7927C8.5574 10.8061 8.53093 10.8283 8.51332 10.8572C1.25345 21.7033 -0.735425 32.2829 0.2402 42.7313C0.244575 42.7824 0.27334 42.8313 0.313043 42.8625C5.1029 46.3801 9.74281 48.5155 14.2964 49.931C14.3693 49.9532 14.4465 49.9267 14.4929 49.8666C15.57 48.3956 16.5302 46.8446 17.3534 45.2135C17.402 45.118 17.3556 45.0046 17.2563 44.9668C15.7333 44.3891 14.2831 43.6846 12.888 42.8848C12.7776 42.8204 12.7688 42.6625 12.8704 42.5869C13.1639 42.367 13.4576 42.1381 13.7379 41.907C13.7887 41.8647 13.8594 41.8559 13.919 41.8825C23.0837 46.0668 33.0057 46.0668 42.0622 41.8825C42.1219 41.8536 42.1925 41.8626 42.2454 41.9047C42.5259 42.1358 42.8194 42.3669 43.1152 42.5868C43.2167 42.6624 43.21 42.8202 43.0998 42.8847C41.7047 43.7002 40.2545 44.389 38.7293 44.9645C38.6299 45.0023 38.5858 45.1179 38.6344 45.2134C39.4754 46.8422 40.4356 48.3932 41.4928 49.8643C41.537 49.9266 41.6164 49.9532 41.6893 49.9309C46.265 48.5155 50.9049 46.38 55.6947 42.8624C55.7367 42.8313 55.7632 42.7846 55.7676 42.7335C56.9353 30.654 53.8118 20.1611 47.4879 10.8593C47.4726 10.8283 47.4461 10.8061 47.4153 10.7927ZM18.7223 36.3693C15.9631 36.3693 13.6895 33.8362 13.6895 30.7251C13.6895 27.6142 15.9189 25.0809 18.7223 25.0809C21.5475 25.0809 23.7991 27.6364 23.7549 30.7251C23.7549 33.8362 21.5254 36.3693 18.7223 36.3693ZM37.3299 36.3693C34.5708 36.3693 32.2972 33.8362 32.2972 30.7251C32.2972 27.6142 34.5266 25.0809 37.3299 25.0809C40.1553 25.0809 42.4068 27.6364 42.3627 30.7251C42.3627 33.8362 40.1554 36.3693 37.3299 36.3693Z" fill="#5865F2"/>
</g>
<defs>
<clipPath id="clip0_1086_6986">
<rect width="56" height="56" fill="white" transform="translate(0.000976562 0.596191)"/>
</clipPath>
</defs>
</svg>
