<svg width="56" height="57" viewBox="0 0 56 57" fill="none" xmlns="http://www.w3.org/2000/svg">
<g clip-path="url(#clip0_1086_6957)">
<path d="M41.3092 27.0586C41.718 27.0097 42.1097 27.0077 42.4694 27.0587C42.6777 26.5809 42.7135 25.7575 42.5262 24.861C42.2478 23.5283 41.8709 22.7217 41.092 22.8473C40.3133 22.9728 40.2845 23.9383 40.563 25.271C40.7196 26.0207 40.9985 26.6615 41.3092 27.0586Z" fill="black"/>
<path d="M34.6251 28.1138C35.1824 28.3583 35.5247 28.5203 35.6588 28.3787C35.745 28.2902 35.7192 28.1218 35.5861 27.9045C35.3112 27.4556 34.7455 27.0003 34.1453 26.7446C32.9179 26.2164 31.4542 26.392 30.325 27.2035C29.9523 27.4766 29.5987 27.8549 29.6494 28.0847C29.6658 28.159 29.7215 28.2149 29.8524 28.2332C30.1598 28.2685 31.2339 27.7254 32.471 27.6496C33.3444 27.5961 34.0678 27.8692 34.6251 28.1138Z" fill="black"/>
<path d="M33.5081 28.7538C32.7826 28.8684 32.3821 29.1076 32.1253 29.3302C31.9059 29.5219 31.7704 29.7337 31.7715 29.8828C31.772 29.9536 31.8028 29.9944 31.8269 30.015C31.86 30.0442 31.8992 30.0604 31.9463 30.0604C32.1102 30.0604 32.4773 29.9132 32.4773 29.9132C33.4873 29.5517 34.1535 29.5953 34.8138 29.6707C35.1785 29.7116 35.3509 29.7343 35.4309 29.6092C35.4545 29.5735 35.4832 29.4956 35.4102 29.3772C35.2404 29.1013 34.5076 28.6352 33.5081 28.7538Z" fill="black"/>
<path d="M39.0561 31.1008C39.5488 31.343 40.0914 31.2479 40.2681 30.8885C40.4446 30.5291 40.1882 30.0416 39.6955 29.7995C39.2027 29.5574 38.6602 29.6524 38.4835 30.0118C38.307 30.3711 38.5634 30.8587 39.0561 31.1008Z" fill="black"/>
<path d="M42.2165 28.3333C41.8162 28.3265 41.4841 28.7661 41.4748 29.3151C41.4655 29.8639 41.7825 30.3145 42.1828 30.3213C42.5831 30.3281 42.9152 29.8885 42.9245 29.3397C42.9338 28.7906 42.6168 28.3401 42.2165 28.3333Z" fill="black"/>
<path d="M15.3334 38.2317C15.2339 38.1069 15.0701 38.1449 14.9119 38.1818C14.8012 38.2076 14.6758 38.2367 14.5385 38.2343C14.244 38.2286 13.9946 38.1028 13.8546 37.8877C13.6723 37.6077 13.6828 37.1902 13.8842 36.712C13.9113 36.6477 13.9432 36.5761 13.978 36.498C14.2991 35.7777 14.8365 34.5721 14.2332 33.4233C13.7791 32.5587 13.0386 32.0203 12.1482 31.9072C11.2933 31.7989 10.4133 32.1159 9.85206 32.7351C8.96645 33.7122 8.82809 35.0415 8.99927 35.5113C9.06205 35.6833 9.16016 35.7309 9.23147 35.7407C9.38208 35.761 9.60487 35.6513 9.74455 35.2759C9.75461 35.2488 9.76795 35.2069 9.78458 35.1537C9.8467 34.9552 9.96253 34.5857 10.1522 34.2894C10.3809 33.932 10.7371 33.6859 11.1553 33.5964C11.5812 33.5052 12.0166 33.5864 12.381 33.8251C13.0013 34.2311 13.2403 34.9912 12.9754 35.7166C12.8384 36.0916 12.6161 36.8089 12.6651 37.3982C12.7643 38.5911 13.4979 39.0701 14.1571 39.121C14.798 39.1452 15.2459 38.7855 15.3593 38.5224C15.4261 38.367 15.3698 38.2722 15.3334 38.2317Z" fill="black"/>
<path d="M52.3222 36.0499C52.2977 35.9636 52.139 35.3827 51.9206 34.6827C51.7022 33.9827 51.4762 33.4899 51.4762 33.4899C52.352 32.1786 52.3676 31.0059 52.2513 30.342C52.1268 29.5186 51.7841 28.8171 51.0933 28.0918C50.4025 27.3667 48.9897 26.6239 47.0041 26.0664C46.7769 26.0026 46.0281 25.7972 45.9622 25.7771C45.9572 25.734 45.9075 23.3209 45.8622 22.2851C45.8293 21.5363 45.7651 20.3673 45.4023 19.2156C44.9699 17.6571 44.2168 16.2932 43.2766 15.4207C45.8712 12.7312 47.4907 9.76855 47.4869 7.22678C47.4794 2.33903 41.4766 0.860064 34.0793 3.92322C34.0714 3.9265 32.5231 4.58308 32.5118 4.58866C32.5049 4.58188 29.6783 1.80845 29.6358 1.77138C21.2018 -5.58508 -5.16832 23.726 3.26264 30.8448L5.10528 32.4057C4.62731 33.6438 4.43951 35.0623 4.59296 36.5876C4.78995 38.5469 5.80057 40.4249 7.43846 41.8761C8.99345 43.2538 11.0379 44.1257 13.0218 44.1241C16.3028 51.6848 23.799 56.323 32.5887 56.584C42.017 56.8641 49.9317 52.44 53.248 44.4927C53.4649 43.9349 54.3855 41.4218 54.3855 39.2034C54.3854 36.9738 53.1249 36.0499 52.3222 36.0499ZM13.7467 42.0005C13.4603 42.0493 13.168 42.0687 12.8734 42.0617C10.0257 41.9853 6.94978 39.4216 6.64407 36.3812C6.30621 33.0207 8.02329 30.4343 11.0636 29.8211C11.427 29.748 11.8662 29.7056 12.3399 29.7301C14.0433 29.8234 16.5534 31.1315 17.1269 34.8422C17.6347 38.1289 16.8281 41.475 13.7467 42.0005ZM10.5665 27.8109C8.67385 28.1789 7.00578 29.2515 5.98575 30.7333C5.37598 30.2248 4.24023 29.2405 4.03964 28.8569C2.41115 25.7646 5.81698 19.7525 8.1961 16.3574C14.0759 7.96649 23.2849 1.61552 27.5482 2.76767C28.241 2.96378 30.5364 5.6252 30.5364 5.6252C30.5364 5.6252 26.275 7.98956 22.3232 11.2854C16.9984 15.3855 12.9761 21.3445 10.5665 27.8109ZM21.4261 16.3231C23.5164 13.9075 26.0897 11.8074 28.3948 10.6282C28.4746 10.5874 28.5592 10.674 28.5159 10.7524C28.3329 11.0839 27.9805 11.7935 27.8687 12.332C27.8513 12.4159 27.9428 12.479 28.0134 12.4307C29.4476 11.4531 31.9422 10.4058 34.1303 10.2711C34.2244 10.2653 34.2698 10.3859 34.195 10.4433C33.8623 10.6985 33.4983 11.0516 33.2325 11.4091C33.1873 11.4699 33.2297 11.5574 33.3055 11.5579C34.842 11.5687 37.0082 12.1065 38.4198 12.8983C38.5154 12.9519 38.4474 13.137 38.3405 13.1125C36.2045 12.6228 32.7079 12.2515 29.0758 13.1373C25.8333 13.9282 23.3584 15.1494 21.5529 16.4625C21.4619 16.5289 21.3523 16.4084 21.4261 16.3231ZM52.4186 39.9546C52.0092 42.4352 50.9547 44.4484 49.1827 46.3004C48.1042 47.4616 46.7945 48.4711 45.2963 49.2051C44.5006 49.623 43.6532 49.9847 42.7583 50.277C36.0781 52.4588 29.2402 50.0601 27.0359 44.9091C26.8601 44.5218 26.7113 44.1166 26.594 43.6925C25.6545 40.2981 26.4521 36.2256 28.9449 33.6623C28.9451 33.6621 28.9445 33.6613 28.9446 33.661C29.0984 33.4977 29.2552 33.3055 29.2552 33.0636C29.2552 32.8612 29.1265 32.6478 29.0151 32.4966C28.143 31.2316 25.1221 29.0761 25.7285 24.9046C26.1639 21.908 28.7847 19.7974 31.2283 19.9225C31.4347 19.9331 31.6414 19.9459 31.8475 19.958C32.9064 20.0207 33.8302 20.1564 34.7019 20.193C36.1608 20.256 37.4728 20.0439 39.0266 18.7491C39.551 18.3123 39.9711 17.9336 40.6822 17.8131C40.7568 17.8004 40.9428 17.7337 41.3144 17.7513C41.6937 17.7715 42.0549 17.8757 42.3794 18.0917C43.6252 18.9206 43.8018 20.9283 43.8665 22.397C43.9031 23.2353 44.0046 25.2637 44.0393 25.8459C44.1185 27.1773 44.4685 27.3651 45.1766 27.5982C45.5748 27.7292 45.9445 27.827 46.4892 27.9799C48.1382 28.4429 49.1158 28.9126 49.7321 29.516C50.0996 29.893 50.2705 30.2935 50.3233 30.6758C50.5179 32.0943 49.2221 33.8466 45.7919 35.4386C42.0423 37.179 37.4936 37.6197 34.3507 37.2696C34.1097 37.2428 33.2526 37.1455 33.2496 37.1452C30.7357 36.8065 29.3015 40.0556 30.8104 42.2815C31.7828 43.716 34.4314 44.6497 37.0815 44.6501C43.1575 44.651 47.8278 42.0563 49.565 39.8153C49.617 39.7482 49.6221 39.7409 49.704 39.6172C49.7894 39.4882 49.719 39.4174 49.6125 39.4902C48.1931 40.4614 41.8887 44.3169 35.1454 43.157C35.1454 43.157 34.326 43.0224 33.578 42.7312C32.9835 42.5001 31.7396 41.9279 31.5884 40.6514C37.0305 42.3345 40.457 40.7435 40.457 40.7435C40.5188 40.7174 40.5616 40.6466 40.5545 40.5764C40.5457 40.4901 40.4686 40.4272 40.3824 40.4361C40.3824 40.4361 35.9215 41.0965 31.7072 39.5536C32.1662 38.0618 33.3868 38.6006 35.2316 38.7494C38.5569 38.9476 41.5371 38.4619 43.7396 37.8297C45.6482 37.2818 48.1549 36.202 50.1019 34.6654C50.7587 36.1078 50.9906 37.6955 50.9906 37.6955C50.9906 37.6955 51.499 37.6045 51.9238 37.866C52.3252 38.1134 52.6196 38.627 52.4186 39.9546Z" fill="black"/>
</g>
<defs>
<clipPath id="clip0_1086_6957">
<rect width="56" height="56" fill="white" transform="translate(0 0.596191)"/>
</clipPath>
</defs>
</svg>
