<svg width="56" height="57" viewBox="0 0 56 57" fill="none" xmlns="http://www.w3.org/2000/svg">
<path d="M11.7879 35.9641C11.7879 39.2193 9.14872 41.8588 5.89391 41.8588C2.63921 41.8588 0 39.2193 0 35.9641C0 32.7089 2.63921 30.0693 5.89402 30.0693H11.788L11.7879 35.9641Z" fill="#FF185B"/>
<path d="M14.7344 35.9641C14.7344 32.7089 17.3736 30.0693 20.6284 30.0693C23.8832 30.0693 26.5224 32.7089 26.5224 35.9641V50.7008C26.5224 53.956 23.8832 56.5955 20.6284 56.5955C17.3736 56.5955 14.7344 53.956 14.7344 50.7008V35.9641Z" fill="#FF185B"/>
<path d="M20.6284 12.3855C17.3736 12.3855 14.7344 9.746 14.7344 6.49081C14.7344 3.23572 17.3736 0.596191 20.6284 0.596191C23.8832 0.596191 26.5224 3.23572 26.5224 6.49091V12.3856L20.6284 12.3855Z" fill="#00C5F1"/>
<path d="M20.629 15.3335C23.8838 15.3335 26.523 17.973 26.523 21.2282C26.523 24.4834 23.8838 27.1229 20.629 27.1229H5.89402C2.63921 27.1228 0 24.4833 0 21.2282C0 17.9731 2.63921 15.3335 5.89402 15.3335H20.629Z" fill="#00C5F1"/>
<path d="M44.2129 21.2282C44.2129 17.973 46.8521 15.3335 50.1069 15.3335C53.3617 15.3335 56.0009 17.973 56.0009 21.2282C56.0009 24.4834 53.3617 27.1229 50.1069 27.1229H44.2129V21.2282Z" fill="#00B67B"/>
<path d="M41.2568 21.2277C41.2568 24.4829 38.6176 27.1224 35.3628 27.1224C32.108 27.1224 29.4688 24.4829 29.4688 21.2277V6.49091C29.4689 3.23572 32.1081 0.596191 35.3628 0.596191C38.6175 0.596191 41.2568 3.23572 41.2568 6.49091V21.2277Z" fill="#00B67B"/>
<path d="M35.3628 44.8069C38.6176 44.8069 41.2568 47.4464 41.2568 50.7016C41.2568 53.9568 38.6176 56.5963 35.3628 56.5963C32.108 56.5963 29.4688 53.9568 29.4688 50.7016V44.8069H35.3628Z" fill="#FFB20F"/>
<path d="M35.3628 41.8588C32.108 41.8588 29.4688 39.2193 29.4688 35.9641C29.4688 32.7089 32.108 30.0693 35.3628 30.0693H50.0978C53.3526 30.0693 55.9918 32.7089 55.9918 35.9641C55.9918 39.2193 53.3526 41.8588 50.0978 41.8588H35.3628Z" fill="#FFB20F"/>
</svg>
