<svg width="512" height="512" viewBox="0 0 512 512" fill="none" xmlns="http://www.w3.org/2000/svg">
<path d="M184.095 512H493.496C496.619 512.006 499.694 511.269 502.431 509.858C505.168 508.447 507.479 506.409 509.147 503.933C510.815 501.458 511.786 498.626 511.969 495.704C512.152 492.781 511.54 489.862 510.193 487.221L436.574 344.239C435.102 341.288 432.759 338.793 429.823 337.049C426.887 335.306 423.479 334.386 420.004 334.399H268.213C264.9 334.401 261.649 335.239 258.8 336.825C255.951 338.41 253.61 340.684 252.022 343.409L168.031 486.391C166.5 489.017 165.722 491.971 165.772 494.963C165.822 497.955 166.699 500.884 168.317 503.464C169.936 506.044 172.24 508.186 175.005 509.682C177.771 511.178 180.903 511.977 184.095 512Z" fill="#093882"/>
<path d="M209.267 6.10983L1.94614 327.404C0.673148 329.37 0 331.626 0 333.925C0 336.225 0.673148 338.48 1.94614 340.446L95.0445 482.717C96.2483 484.53 97.9253 486.026 99.9172 487.063C101.909 488.1 104.15 488.645 106.429 488.645C108.707 488.645 110.948 488.1 112.94 487.063C114.932 486.026 116.609 484.53 117.813 482.717L334.115 156.087C335.64 154.079 336.46 151.675 336.46 149.21C336.46 146.746 335.64 144.342 334.115 142.334L231.783 5.39851C230.505 3.67357 228.786 2.27644 226.783 1.33463C224.78 0.392809 222.558 -0.0636165 220.318 0.00713409C218.079 0.0778847 215.894 0.673593 213.964 1.73968C212.033 2.80576 210.418 4.30814 209.267 6.10983Z" fill="#093882"/>
</svg>
